<svg xmlns="http://www.w3.org/2000/svg" xmlns:xlink="http://www.w3.org/1999/xlink" contentStyleType="text/css" data-diagram-type="DESCRIPTION" height="402px" preserveAspectRatio="none" style="width:1634px;height:402px;background:#FFFFFF;" version="1.1" viewBox="0 0 1634 402" width="1634px" zoomAndPan="magnify"><title>Sistema Operativo como M&#225;quina Virtual</title><defs/><g><text fill="#000000" font-family="sans-serif" font-size="14" font-weight="bold" lengthAdjust="spacing" textLength="324.085" x="647.9575" y="22.9951">Sistema Operativo como M&#225;quina Virtual</text><!--cluster Hardware--><g class="cluster" data-entity="Hardware" data-source-line="5" data-uid="ent0002" id="cluster_Hardware"><polygon fill="none" points="16,53.2969,26,43.2969,1617,43.2969,1617,375.8869,1607,385.8869,16,385.8869,16,53.2969" style="stroke:#181818;stroke-width:1;"/><line style="stroke:#181818;stroke-width:1;" x1="1607" x2="1617" y1="53.2969" y2="43.2969"/><line style="stroke:#181818;stroke-width:1;" x1="16" x2="1607" y1="53.2969" y2="53.2969"/><line style="stroke:#181818;stroke-width:1;" x1="1607" x2="1607" y1="53.2969" y2="385.8869"/><text fill="#000000" font-family="sans-serif" font-size="14" font-weight="bold" lengthAdjust="spacing" textLength="76.8701" x="774.0649" y="69.292">Hardware</text></g><!--cluster Sistema Operativo--><g class="cluster" data-entity="Sistema Operativo" data-source-line="13" data-uid="ent0009" id="cluster_Sistema Operativo"><path d="M491.5,91.2969 L638.8164,91.2969 A3.75,3.75 0 0 1 641.3164,93.7969 L648.3164,113.5938 L1590.5,113.5938 A2.5,2.5 0 0 1 1593,116.0938 L1593,359.3869 A2.5,2.5 0 0 1 1590.5,361.8869 L491.5,361.8869 A2.5,2.5 0 0 1 489,359.3869 L489,93.7969 A2.5,2.5 0 0 1 491.5,91.2969" fill="none" style="stroke:#000000;stroke-width:1.5;"/><line style="stroke:#000000;stroke-width:1.5;" x1="489" x2="648.3164" y1="113.5938" y2="113.5938"/><text fill="#000000" font-family="sans-serif" font-size="14" font-weight="bold" lengthAdjust="spacing" textLength="146.3164" x="493" y="106.292">Sistema Operativo</text></g><!--cluster Programa 2--><g class="cluster" data-entity="Programa 2" data-source-line="15" data-uid="ent0010" id="cluster_Programa 2"><path d="M1055.5,134.2969 L1148.3066,134.2969 A3.75,3.75 0 0 1 1150.8066,136.7969 L1157.8066,156.5938 L1566.5,156.5938 A2.5,2.5 0 0 1 1569,159.0938 L1569,335.3869 A2.5,2.5 0 0 1 1566.5,337.8869 L1055.5,337.8869 A2.5,2.5 0 0 1 1053,335.3869 L1053,136.7969 A2.5,2.5 0 0 1 1055.5,134.2969" fill="none" style="stroke:#000000;stroke-width:1.5;"/><line style="stroke:#000000;stroke-width:1.5;" x1="1053" x2="1157.8066" y1="156.5938" y2="156.5938"/><text fill="#000000" font-family="sans-serif" font-size="14" font-weight="bold" lengthAdjust="spacing" textLength="91.8066" x="1057" y="149.292">Programa 2</text></g><!--cluster Programa 1--><g class="cluster" data-entity="Programa 1" data-source-line="23" data-uid="ent0016" id="cluster_Programa 1"><path d="M515.5,134.2969 L608.3066,134.2969 A3.75,3.75 0 0 1 610.8066,136.7969 L617.8066,156.5938 L1026.5,156.5938 A2.5,2.5 0 0 1 1029,159.0938 L1029,335.3869 A2.5,2.5 0 0 1 1026.5,337.8869 L515.5,337.8869 A2.5,2.5 0 0 1 513,335.3869 L513,136.7969 A2.5,2.5 0 0 1 515.5,134.2969" fill="none" style="stroke:#000000;stroke-width:1.5;"/><line style="stroke:#000000;stroke-width:1.5;" x1="513" x2="617.8066" y1="156.5938" y2="156.5938"/><text fill="#000000" font-family="sans-serif" font-size="14" font-weight="bold" lengthAdjust="spacing" textLength="91.8066" x="517" y="149.292">Programa 1</text></g><!--entity Memoria RAM--><g class="entity" data-entity="Memoria RAM" data-source-line="6" data-uid="ent0003" id="entity_Memoria RAM"><rect fill="#F1F1F1" height="46.2969" rx="2.5" ry="2.5" style="stroke:#181818;stroke-width:0.5;" width="136.9541" x="31.52" y="169.2969"/><rect fill="#F1F1F1" height="10" style="stroke:#181818;stroke-width:0.5;" width="15" x="148.4741" y="174.2969"/><rect fill="#F1F1F1" height="2" style="stroke:#181818;stroke-width:0.5;" width="4" x="146.4741" y="176.2969"/><rect fill="#F1F1F1" height="2" style="stroke:#181818;stroke-width:0.5;" width="4" x="146.4741" y="180.2969"/><text fill="#000000" font-family="sans-serif" font-size="14" lengthAdjust="spacing" textLength="96.9541" x="46.52" y="202.292">Memoria RAM</text></g><!--entity Procesador--><g class="entity" data-entity="Procesador" data-source-line="7" data-uid="ent0004" id="entity_Procesador"><rect fill="#F1F1F1" height="46.2969" rx="2.5" ry="2.5" style="stroke:#181818;stroke-width:0.5;" width="118.1553" x="203.92" y="169.2969"/><rect fill="#F1F1F1" height="10" style="stroke:#181818;stroke-width:0.5;" width="15" x="302.0753" y="174.2969"/><rect fill="#F1F1F1" height="2" style="stroke:#181818;stroke-width:0.5;" width="4" x="300.0753" y="176.2969"/><rect fill="#F1F1F1" height="2" style="stroke:#181818;stroke-width:0.5;" width="4" x="300.0753" y="180.2969"/><text fill="#000000" font-family="sans-serif" font-size="14" lengthAdjust="spacing" textLength="78.1553" x="218.92" y="202.292">Procesador</text></g><!--entity Disco Duro--><g class="entity" data-entity="Disco Duro" data-source-line="8" data-uid="ent0005" id="entity_Disco Duro"><rect fill="#F1F1F1" height="46.2969" rx="2.5" ry="2.5" style="stroke:#181818;stroke-width:0.5;" width="116.6514" x="356.67" y="169.2969"/><rect fill="#F1F1F1" height="10" style="stroke:#181818;stroke-width:0.5;" width="15" x="453.3214" y="174.2969"/><rect fill="#F1F1F1" height="2" style="stroke:#181818;stroke-width:0.5;" width="4" x="451.3214" y="176.2969"/><rect fill="#F1F1F1" height="2" style="stroke:#181818;stroke-width:0.5;" width="4" x="451.3214" y="180.2969"/><text fill="#000000" font-family="sans-serif" font-size="14" lengthAdjust="spacing" textLength="76.6514" x="371.67" y="202.292">Disco Duro</text></g><!--entity Video--><g class="entity" data-entity="Video" data-source-line="9" data-uid="ent0006" id="entity_Video"><rect fill="#F1F1F1" height="46.2969" rx="2.5" ry="2.5" style="stroke:#181818;stroke-width:0.5;" width="79.5322" x="60.23" y="275.5869"/><rect fill="#F1F1F1" height="10" style="stroke:#181818;stroke-width:0.5;" width="15" x="119.7622" y="280.5869"/><rect fill="#F1F1F1" height="2" style="stroke:#181818;stroke-width:0.5;" width="4" x="117.7622" y="282.5869"/><rect fill="#F1F1F1" height="2" style="stroke:#181818;stroke-width:0.5;" width="4" x="117.7622" y="286.5869"/><text fill="#000000" font-family="sans-serif" font-size="14" lengthAdjust="spacing" textLength="39.5322" x="75.23" y="308.582">Video</text></g><!--entity Red--><g class="entity" data-entity="Red" data-source-line="10" data-uid="ent0007" id="entity_Red"><rect fill="#F1F1F1" height="46.2969" rx="2.5" ry="2.5" style="stroke:#181818;stroke-width:0.5;" width="67.2275" x="174.39" y="275.5869"/><rect fill="#F1F1F1" height="10" style="stroke:#181818;stroke-width:0.5;" width="15" x="221.6175" y="280.5869"/><rect fill="#F1F1F1" height="2" style="stroke:#181818;stroke-width:0.5;" width="4" x="219.6175" y="282.5869"/><rect fill="#F1F1F1" height="2" style="stroke:#181818;stroke-width:0.5;" width="4" x="219.6175" y="286.5869"/><text fill="#000000" font-family="sans-serif" font-size="14" lengthAdjust="spacing" textLength="27.2275" x="189.39" y="308.582">Red</text></g><!--entity Entrada/Salida--><g class="entity" data-entity="Entrada/Salida" data-source-line="11" data-uid="ent0008" id="entity_Entrada/Salida"><rect fill="#F1F1F1" height="46.2969" rx="2.5" ry="2.5" style="stroke:#181818;stroke-width:0.5;" width="142.4365" x="276.78" y="275.5869"/><rect fill="#F1F1F1" height="10" style="stroke:#181818;stroke-width:0.5;" width="15" x="399.2165" y="280.5869"/><rect fill="#F1F1F1" height="2" style="stroke:#181818;stroke-width:0.5;" width="4" x="397.2165" y="282.5869"/><rect fill="#F1F1F1" height="2" style="stroke:#181818;stroke-width:0.5;" width="4" x="397.2165" y="286.5869"/><text fill="#000000" font-family="sans-serif" font-size="14" lengthAdjust="spacing" textLength="102.4365" x="291.78" y="308.582">Entrada/Salida</text></g><!--entity MI--><g class="entity" data-entity="MI" data-source-line="16" data-uid="ent0011" id="entity_MI"><rect fill="#F1F1F1" height="46.2969" rx="2.5" ry="2.5" style="stroke:#181818;stroke-width:0.5;" width="154.2217" x="1068.89" y="169.2969"/><rect fill="#F1F1F1" height="10" style="stroke:#181818;stroke-width:0.5;" width="15" x="1203.1117" y="174.2969"/><rect fill="#F1F1F1" height="2" style="stroke:#181818;stroke-width:0.5;" width="4" x="1201.1117" y="176.2969"/><rect fill="#F1F1F1" height="2" style="stroke:#181818;stroke-width:0.5;" width="4" x="1201.1117" y="180.2969"/><text fill="#000000" font-family="sans-serif" font-size="14" lengthAdjust="spacing" textLength="114.2217" x="1083.89" y="202.292">Memoria Infinita</text></g><!--entity PI--><g class="entity" data-entity="PI" data-source-line="17" data-uid="ent0012" id="entity_PI"><rect fill="#F1F1F1" height="46.2969" rx="2.5" ry="2.5" style="stroke:#181818;stroke-width:0.5;" width="194.4443" x="1257.78" y="169.2969"/><rect fill="#F1F1F1" height="10" style="stroke:#181818;stroke-width:0.5;" width="15" x="1432.2243" y="174.2969"/><rect fill="#F1F1F1" height="2" style="stroke:#181818;stroke-width:0.5;" width="4" x="1430.2243" y="176.2969"/><rect fill="#F1F1F1" height="2" style="stroke:#181818;stroke-width:0.5;" width="4" x="1430.2243" y="180.2969"/><text fill="#000000" font-family="sans-serif" font-size="14" lengthAdjust="spacing" textLength="154.4443" x="1272.78" y="202.292">Procesadores Infinitos</text></g><!--entity GUI--><g class="entity" data-entity="GUI" data-source-line="18" data-uid="ent0013" id="entity_GUI"><rect fill="#F1F1F1" height="46.2969" rx="2.5" ry="2.5" style="stroke:#181818;stroke-width:0.5;" width="65.2246" x="1487.39" y="169.2969"/><rect fill="#F1F1F1" height="10" style="stroke:#181818;stroke-width:0.5;" width="15" x="1532.6146" y="174.2969"/><rect fill="#F1F1F1" height="2" style="stroke:#181818;stroke-width:0.5;" width="4" x="1530.6146" y="176.2969"/><rect fill="#F1F1F1" height="2" style="stroke:#181818;stroke-width:0.5;" width="4" x="1530.6146" y="180.2969"/><text fill="#000000" font-family="sans-serif" font-size="14" lengthAdjust="spacing" textLength="25.2246" x="1502.39" y="202.292">GUI</text></g><!--entity AD--><g class="entity" data-entity="AD" data-source-line="19" data-uid="ent0014" id="entity_AD"><rect fill="#F1F1F1" height="46.2969" rx="2.5" ry="2.5" style="stroke:#181818;stroke-width:0.5;" width="203.707" x="1069.15" y="275.5869"/><rect fill="#F1F1F1" height="10" style="stroke:#181818;stroke-width:0.5;" width="15" x="1252.857" y="280.5869"/><rect fill="#F1F1F1" height="2" style="stroke:#181818;stroke-width:0.5;" width="4" x="1250.857" y="282.5869"/><rect fill="#F1F1F1" height="2" style="stroke:#181818;stroke-width:0.5;" width="4" x="1250.857" y="286.5869"/><text fill="#000000" font-family="sans-serif" font-size="14" lengthAdjust="spacing" textLength="163.707" x="1084.15" y="308.582">Administrador de Disco</text></g><!--entity AR--><g class="entity" data-entity="AR" data-source-line="20" data-uid="ent0015" id="entity_AR"><rect fill="#F1F1F1" height="46.2969" rx="2.5" ry="2.5" style="stroke:#181818;stroke-width:0.5;" width="192.708" x="1307.65" y="275.5869"/><rect fill="#F1F1F1" height="10" style="stroke:#181818;stroke-width:0.5;" width="15" x="1480.358" y="280.5869"/><rect fill="#F1F1F1" height="2" style="stroke:#181818;stroke-width:0.5;" width="4" x="1478.358" y="282.5869"/><rect fill="#F1F1F1" height="2" style="stroke:#181818;stroke-width:0.5;" width="4" x="1478.358" y="286.5869"/><text fill="#000000" font-family="sans-serif" font-size="14" lengthAdjust="spacing" textLength="152.708" x="1322.65" y="308.582">Administrador de Red</text></g><!--entity Memoria Infinita--><g class="entity" data-entity="Memoria Infinita" data-source-line="24" data-uid="ent0017" id="entity_Memoria Infinita"><rect fill="#F1F1F1" height="46.2969" rx="2.5" ry="2.5" style="stroke:#181818;stroke-width:0.5;" width="154.2217" x="528.89" y="169.2969"/><rect fill="#F1F1F1" height="10" style="stroke:#181818;stroke-width:0.5;" width="15" x="663.1117" y="174.2969"/><rect fill="#F1F1F1" height="2" style="stroke:#181818;stroke-width:0.5;" width="4" x="661.1117" y="176.2969"/><rect fill="#F1F1F1" height="2" style="stroke:#181818;stroke-width:0.5;" width="4" x="661.1117" y="180.2969"/><text fill="#000000" font-family="sans-serif" font-size="14" lengthAdjust="spacing" textLength="114.2217" x="543.89" y="202.292">Memoria Infinita</text></g><!--entity Procesadores Infinitos--><g class="entity" data-entity="Procesadores Infinitos" data-source-line="25" data-uid="ent0018" id="entity_Procesadores Infinitos"><rect fill="#F1F1F1" height="46.2969" rx="2.5" ry="2.5" style="stroke:#181818;stroke-width:0.5;" width="194.4443" x="717.78" y="169.2969"/><rect fill="#F1F1F1" height="10" style="stroke:#181818;stroke-width:0.5;" width="15" x="892.2243" y="174.2969"/><rect fill="#F1F1F1" height="2" style="stroke:#181818;stroke-width:0.5;" width="4" x="890.2243" y="176.2969"/><rect fill="#F1F1F1" height="2" style="stroke:#181818;stroke-width:0.5;" width="4" x="890.2243" y="180.2969"/><text fill="#000000" font-family="sans-serif" font-size="14" lengthAdjust="spacing" textLength="154.4443" x="732.78" y="202.292">Procesadores Infinitos</text></g><!--entity GUI1--><g class="entity" data-entity="GUI1" data-source-line="26" data-uid="ent0019" id="entity_GUI1"><rect fill="#F1F1F1" height="46.2969" rx="2.5" ry="2.5" style="stroke:#181818;stroke-width:0.5;" width="65.2246" x="947.39" y="169.2969"/><rect fill="#F1F1F1" height="10" style="stroke:#181818;stroke-width:0.5;" width="15" x="992.6146" y="174.2969"/><rect fill="#F1F1F1" height="2" style="stroke:#181818;stroke-width:0.5;" width="4" x="990.6146" y="176.2969"/><rect fill="#F1F1F1" height="2" style="stroke:#181818;stroke-width:0.5;" width="4" x="990.6146" y="180.2969"/><text fill="#000000" font-family="sans-serif" font-size="14" lengthAdjust="spacing" textLength="25.2246" x="962.39" y="202.292">GUI</text></g><!--entity Administrador de Disco--><g class="entity" data-entity="Administrador de Disco" data-source-line="27" data-uid="ent0020" id="entity_Administrador de Disco"><rect fill="#F1F1F1" height="46.2969" rx="2.5" ry="2.5" style="stroke:#181818;stroke-width:0.5;" width="203.707" x="529.15" y="275.5869"/><rect fill="#F1F1F1" height="10" style="stroke:#181818;stroke-width:0.5;" width="15" x="712.857" y="280.5869"/><rect fill="#F1F1F1" height="2" style="stroke:#181818;stroke-width:0.5;" width="4" x="710.857" y="282.5869"/><rect fill="#F1F1F1" height="2" style="stroke:#181818;stroke-width:0.5;" width="4" x="710.857" y="286.5869"/><text fill="#000000" font-family="sans-serif" font-size="14" lengthAdjust="spacing" textLength="163.707" x="544.15" y="308.582">Administrador de Disco</text></g><!--entity Administrador de Red--><g class="entity" data-entity="Administrador de Red" data-source-line="28" data-uid="ent0021" id="entity_Administrador de Red"><rect fill="#F1F1F1" height="46.2969" rx="2.5" ry="2.5" style="stroke:#181818;stroke-width:0.5;" width="192.708" x="767.65" y="275.5869"/><rect fill="#F1F1F1" height="10" style="stroke:#181818;stroke-width:0.5;" width="15" x="940.358" y="280.5869"/><rect fill="#F1F1F1" height="2" style="stroke:#181818;stroke-width:0.5;" width="4" x="938.358" y="282.5869"/><rect fill="#F1F1F1" height="2" style="stroke:#181818;stroke-width:0.5;" width="4" x="938.358" y="286.5869"/><text fill="#000000" font-family="sans-serif" font-size="14" lengthAdjust="spacing" textLength="152.708" x="782.65" y="308.582">Administrador de Red</text></g><!--SRC=[bP5HJiCm38RVTmeh5q3Z1fMAHXygfaxitMh2PD76dPF20zfXTfPTR6vWW6WdEZyaal__Z_mvaMBZm6meHDSYF7LECD8RGyqjGtawxdlo25kIs6DZ5bgUhIOUKUmxYZFmiG0jzNVidOzWIjUo44ALbUQljXQkNK3BCf9o2ZL3tWkFf2rPD-vMpevw3puAMhpRO4CMTTv1xx1-nTqKvZ1zilmowOWxGNNTNzYky1N-XJn5D801ocBA-eFhmiNF8GNMau7LSv5KlQVapBRwH1WOMK3_8Iqj9R9yLc1OMh9NN_R3zGKivoxW1lH_e9StKC_c_IRzF0zd]--></g></svg>