<svg xmlns="http://www.w3.org/2000/svg" xmlns:xlink="http://www.w3.org/1999/xlink" contentStyleType="text/css" data-diagram-type="DESCRIPTION" height="309px" preserveAspectRatio="none" style="width:457px;height:309px;background:#FFFFFF;" version="1.1" viewBox="0 0 457 309" width="457px" zoomAndPan="magnify"><title>Esquema de Sistema Operativo</title><defs/><g><text fill="#000000" font-family="sans-serif" font-size="14" font-weight="bold" lengthAdjust="spacing" textLength="246.9961" x="98.4531" y="22.9951">Esquema de Sistema Operativo</text><!--entity Aplicaci?n 1--><g class="entity" data-entity="Aplicaci&#243;n 1" data-source-line="3" data-uid="ent0002" id="entity_Aplicaci&#243;n 1"><rect fill="#F1F1F1" height="46.2969" rx="2.5" ry="2.5" style="stroke:#181818;stroke-width:0.5;" width="124.9023" x="7" y="44.2969"/><rect fill="#F1F1F1" height="10" style="stroke:#181818;stroke-width:0.5;" width="15" x="111.9023" y="49.2969"/><rect fill="#F1F1F1" height="2" style="stroke:#181818;stroke-width:0.5;" width="4" x="109.9023" y="51.2969"/><rect fill="#F1F1F1" height="2" style="stroke:#181818;stroke-width:0.5;" width="4" x="109.9023" y="55.2969"/><text fill="#000000" font-family="sans-serif" font-size="14" lengthAdjust="spacing" textLength="84.9023" x="22" y="77.292">Aplicaci&#243;n 1</text></g><!--entity Aplicaci?n 2--><g class="entity" data-entity="Aplicaci&#243;n 2" data-source-line="4" data-uid="ent0003" id="entity_Aplicaci&#243;n 2"><rect fill="#F1F1F1" height="46.2969" rx="2.5" ry="2.5" style="stroke:#181818;stroke-width:0.5;" width="124.9023" x="167" y="44.2969"/><rect fill="#F1F1F1" height="10" style="stroke:#181818;stroke-width:0.5;" width="15" x="271.9023" y="49.2969"/><rect fill="#F1F1F1" height="2" style="stroke:#181818;stroke-width:0.5;" width="4" x="269.9023" y="51.2969"/><rect fill="#F1F1F1" height="2" style="stroke:#181818;stroke-width:0.5;" width="4" x="269.9023" y="55.2969"/><text fill="#000000" font-family="sans-serif" font-size="14" lengthAdjust="spacing" textLength="84.9023" x="182" y="77.292">Aplicaci&#243;n 2</text></g><!--entity Aplicaci?n 3--><g class="entity" data-entity="Aplicaci&#243;n 3" data-source-line="5" data-uid="ent0004" id="entity_Aplicaci&#243;n 3"><rect fill="#F1F1F1" height="46.2969" rx="2.5" ry="2.5" style="stroke:#181818;stroke-width:0.5;" width="124.9023" x="327" y="44.2969"/><rect fill="#F1F1F1" height="10" style="stroke:#181818;stroke-width:0.5;" width="15" x="431.9023" y="49.2969"/><rect fill="#F1F1F1" height="2" style="stroke:#181818;stroke-width:0.5;" width="4" x="429.9023" y="51.2969"/><rect fill="#F1F1F1" height="2" style="stroke:#181818;stroke-width:0.5;" width="4" x="429.9023" y="55.2969"/><text fill="#000000" font-family="sans-serif" font-size="14" lengthAdjust="spacing" textLength="84.9023" x="342" y="77.292">Aplicaci&#243;n 3</text></g><!--entity Sistema Operativo--><g class="entity" data-entity="Sistema Operativo" data-source-line="8" data-uid="ent0005" id="entity_Sistema Operativo"><rect fill="#F1F1F1" height="46.2969" rx="2.5" ry="2.5" style="stroke:#181818;stroke-width:0.5;" width="169.9238" x="144.49" y="150.5969"/><rect fill="#F1F1F1" height="10" style="stroke:#181818;stroke-width:0.5;" width="15" x="294.4138" y="155.5969"/><rect fill="#F1F1F1" height="2" style="stroke:#181818;stroke-width:0.5;" width="4" x="292.4138" y="157.5969"/><rect fill="#F1F1F1" height="2" style="stroke:#181818;stroke-width:0.5;" width="4" x="292.4138" y="161.5969"/><text fill="#000000" font-family="sans-serif" font-size="14" lengthAdjust="spacing" textLength="129.9238" x="159.49" y="183.592">Sistema Operativo</text></g><!--entity Hardware--><g class="entity" data-entity="Hardware" data-source-line="16" data-uid="ent0009" id="entity_Hardware"><rect fill="#F1F1F1" height="46.2969" rx="2.5" ry="2.5" style="stroke:#181818;stroke-width:0.5;" width="108.1475" x="175.38" y="256.8869"/><rect fill="#F1F1F1" height="10" style="stroke:#181818;stroke-width:0.5;" width="15" x="263.5275" y="261.8869"/><rect fill="#F1F1F1" height="2" style="stroke:#181818;stroke-width:0.5;" width="4" x="261.5275" y="263.8869"/><rect fill="#F1F1F1" height="2" style="stroke:#181818;stroke-width:0.5;" width="4" x="261.5275" y="267.8869"/><text fill="#000000" font-family="sans-serif" font-size="14" lengthAdjust="spacing" textLength="68.1475" x="190.38" y="289.882">Hardware</text></g><!--link Aplicaci?n 1 to Sistema Operativo--><g class="link" data-entity-1="Aplicaci&#243;n 1" data-entity-2="Sistema Operativo" data-source-line="11" data-uid="lnk6" id="link_Aplicaci&#243;n 1_Sistema Operativo"><path d="M104.17,91.0769 C131.01,108.5669 162.9534,129.4008 189.7734,146.8808" fill="none" id="Aplicaci&#243;n 1-to-Sistema Operativo" style="stroke:#181818;stroke-width:1;"/><polygon fill="#181818" points="194.8,150.1569,189.4441,141.8916,190.6111,147.4268,185.076,148.5938,194.8,150.1569" style="stroke:#181818;stroke-width:1;"/></g><!--link Aplicaci?n 2 to Sistema Operativo--><g class="link" data-entity-1="Aplicaci&#243;n 2" data-entity-2="Sistema Operativo" data-source-line="12" data-uid="lnk7" id="link_Aplicaci&#243;n 2_Sistema Operativo"><path d="M229.45,91.0769 C229.45,108.5669 229.45,126.6769 229.45,144.1569" fill="none" id="Aplicaci&#243;n 2-to-Sistema Operativo" style="stroke:#181818;stroke-width:1;"/><polygon fill="#181818" points="229.45,150.1569,233.45,141.1569,229.45,145.1569,225.45,141.1569,229.45,150.1569" style="stroke:#181818;stroke-width:1;"/></g><!--link Aplicaci?n 3 to Sistema Operativo--><g class="link" data-entity-1="Aplicaci&#243;n 3" data-entity-2="Sistema Operativo" data-source-line="13" data-uid="lnk8" id="link_Aplicaci&#243;n 3_Sistema Operativo"><path d="M354.73,91.0769 C327.9,108.5669 295.9466,129.4008 269.1266,146.8808" fill="none" id="Aplicaci&#243;n 3-to-Sistema Operativo" style="stroke:#181818;stroke-width:1;"/><polygon fill="#181818" points="264.1,150.1569,273.824,148.5938,268.2889,147.4268,269.4559,141.8916,264.1,150.1569" style="stroke:#181818;stroke-width:1;"/></g><!--link Sistema Operativo to Hardware--><g class="link" data-entity-1="Sistema Operativo" data-entity-2="Hardware" data-source-line="18" data-uid="lnk10" id="link_Sistema Operativo_Hardware"><path d="M229.45,197.3769 C229.45,214.8669 229.45,232.9669 229.45,250.4469" fill="none" id="Sistema Operativo-to-Hardware" style="stroke:#181818;stroke-width:1;"/><polygon fill="#181818" points="229.45,256.4469,233.45,247.4469,229.45,251.4469,225.45,247.4469,229.45,256.4469" style="stroke:#181818;stroke-width:1;"/></g><!--SRC=[AyaioKbLS2qkB4tDJLH8ILK8pYmk0J7z2rAB4aioo_Avk9BpSmloyrBpIXIK70joCfCJapCFRyvJC5J29ME4KyPOYGl5F0pRGF9ejYZewjfXLObc9t7gZ76hGtQPHs9HIdbYKIhGDPWgmIR0L000]--></g></svg>